<svg width="93" height="36" viewBox="0 0 93 36" fill="none" xmlns="http://www.w3.org/2000/svg">
<rect x="0.5" y="0.5" width="92" height="35" rx="17.5" fill="#2E2E30"/>
<rect x="0.5" y="0.5" width="92" height="35" rx="17.5" stroke="#565557"/>
<rect x="8" y="8" width="20" height="20" rx="10" fill="#F06A6A"/>
<path d="M17.1667 17.1663V14.6663C17.1667 14.208 17.5417 13.833 18 13.833C18.4584 13.833 18.8334 14.208 18.8334 14.6663V17.1663H21.3334C21.7917 17.1663 22.1667 17.5413 22.1667 17.9997C22.1667 18.458 21.7917 18.833 21.3334 18.833H18.8334V21.333C18.8334 21.7913 18.4584 22.1663 18 22.1663C17.5417 22.1663 17.1667 21.7913 17.1667 21.333V18.833H14.6667C14.2084 18.833 13.8334 18.458 13.8334 17.9997C13.8334 17.5413 14.2084 17.1663 14.6667 17.1663H17.1667Z" fill="white"/>
<path d="M43.957 23.5898C43.2324 23.9727 42.3301 24.1641 41.25 24.1641C39.8555 24.1641 38.7389 23.7152 37.9004 22.8174C37.0618 21.9196 36.6426 20.7415 36.6426 19.2832C36.6426 17.7155 37.1143 16.4486 38.0576 15.4824C39.001 14.5163 40.1973 14.0332 41.6465 14.0332C42.5762 14.0332 43.3464 14.1676 43.957 14.4365V15.6602C43.2552 15.2682 42.4805 15.0723 41.6328 15.0723C40.5072 15.0723 39.5934 15.4482 38.8916 16.2002C38.1943 16.9521 37.8457 17.957 37.8457 19.2148C37.8457 20.4089 38.1715 21.3613 38.8232 22.0723C39.4795 22.7786 40.3385 23.1318 41.4004 23.1318C42.3848 23.1318 43.237 22.9131 43.957 22.4756V23.5898ZM49.4531 18.1348C49.2572 17.9844 48.9746 17.9092 48.6055 17.9092C48.127 17.9092 47.7259 18.1348 47.4023 18.5859C47.0833 19.0371 46.9238 19.6523 46.9238 20.4316V24H45.8027V17H46.9238V18.4424H46.9512C47.1107 17.9502 47.3545 17.5674 47.6826 17.2939C48.0107 17.016 48.3776 16.877 48.7832 16.877C49.0749 16.877 49.2982 16.9089 49.4531 16.9727V18.1348ZM56.2959 20.7803H51.3535C51.3717 21.5596 51.5814 22.1611 51.9824 22.585C52.3835 23.0088 52.9349 23.2207 53.6367 23.2207C54.4251 23.2207 55.1497 22.9609 55.8105 22.4414V23.4941C55.1953 23.9408 54.3818 24.1641 53.3701 24.1641C52.3812 24.1641 51.6042 23.8473 51.0391 23.2139C50.474 22.5758 50.1914 21.6803 50.1914 20.5273C50.1914 19.4382 50.499 18.5518 51.1143 17.8682C51.734 17.18 52.502 16.8359 53.418 16.8359C54.334 16.8359 55.0426 17.1322 55.5439 17.7246C56.0452 18.3171 56.2959 19.1396 56.2959 20.1924V20.7803ZM55.1475 19.8301C55.1429 19.1829 54.9857 18.6794 54.6758 18.3193C54.3704 17.9593 53.9443 17.7793 53.3975 17.7793C52.8688 17.7793 52.4199 17.9684 52.0508 18.3467C51.6816 18.7249 51.4538 19.2194 51.3672 19.8301H55.1475ZM63.0088 24H61.8877V22.9062H61.8604C61.3727 23.7448 60.6549 24.1641 59.707 24.1641C59.0098 24.1641 58.4629 23.9795 58.0664 23.6104C57.6745 23.2412 57.4785 22.7513 57.4785 22.1406C57.4785 20.8327 58.2487 20.0716 59.7891 19.8574L61.8877 19.5635C61.8877 18.374 61.4069 17.7793 60.4453 17.7793C59.6022 17.7793 58.8411 18.0664 58.1621 18.6406V17.4922C58.8503 17.0547 59.6432 16.8359 60.541 16.8359C62.1862 16.8359 63.0088 17.7064 63.0088 19.4473V24ZM61.8877 20.459L60.1992 20.6914C59.6797 20.7643 59.2878 20.8942 59.0234 21.0811C58.7591 21.2633 58.627 21.5892 58.627 22.0586C58.627 22.4004 58.7477 22.6807 58.9893 22.8994C59.2354 23.1136 59.5612 23.2207 59.9668 23.2207C60.5228 23.2207 60.9808 23.027 61.3408 22.6396C61.7054 22.2477 61.8877 21.7533 61.8877 21.1562V20.459ZM68.3682 23.9316C68.1038 24.0775 67.7552 24.1504 67.3223 24.1504C66.0964 24.1504 65.4834 23.4668 65.4834 22.0996V17.957H64.2803V17H65.4834V15.291L66.6045 14.9287V17H68.3682V17.957H66.6045V21.9014C66.6045 22.3708 66.6842 22.7057 66.8438 22.9062C67.0033 23.1068 67.2676 23.207 67.6367 23.207C67.9193 23.207 68.1631 23.1296 68.3682 22.9746V23.9316ZM75.4912 20.7803H70.5488C70.5671 21.5596 70.7767 22.1611 71.1777 22.585C71.5788 23.0088 72.1302 23.2207 72.832 23.2207C73.6204 23.2207 74.3451 22.9609 75.0059 22.4414V23.4941C74.3906 23.9408 73.5771 24.1641 72.5654 24.1641C71.5765 24.1641 70.7995 23.8473 70.2344 23.2139C69.6693 22.5758 69.3867 21.6803 69.3867 20.5273C69.3867 19.4382 69.6943 18.5518 70.3096 17.8682C70.9294 17.18 71.6973 16.8359 72.6133 16.8359C73.5293 16.8359 74.238 17.1322 74.7393 17.7246C75.2406 18.3171 75.4912 19.1396 75.4912 20.1924V20.7803ZM74.3428 19.8301C74.3382 19.1829 74.181 18.6794 73.8711 18.3193C73.5658 17.9593 73.1396 17.7793 72.5928 17.7793C72.0641 17.7793 71.6152 17.9684 71.2461 18.3467C70.877 18.7249 70.6491 19.2194 70.5625 19.8301H74.3428Z" fill="#F5F4F3"/>
</svg>
