<svg width="20" height="20" viewBox="0 0 20 20" fill="none" xmlns="http://www.w3.org/2000/svg">
<path fill-rule="evenodd" clip-rule="evenodd" d="M6.24984 0.833008C6.71007 0.833008 7.08317 1.2061 7.08317 1.66634V2.49967H12.9165V1.66634C12.9165 1.2061 13.2896 0.833008 13.7498 0.833008C14.2101 0.833008 14.5832 1.2061 14.5832 1.66634V2.52025C16.6887 2.7293 18.3332 4.50578 18.3332 6.66634V14.1663C18.3332 16.4675 16.4677 18.333 14.1665 18.333H5.83317C3.53198 18.333 1.6665 16.4675 1.6665 14.1663V6.66634C1.6665 4.50578 3.31095 2.7293 5.4165 2.52025V1.66634C5.4165 1.2061 5.7896 0.833008 6.24984 0.833008ZM3.47543 5.83301H16.5243C16.1811 4.86201 15.255 4.16634 14.1665 4.16634H5.83317C4.74466 4.16634 3.81862 4.86201 3.47543 5.83301ZM16.6665 7.49967H3.33317V14.1663C3.33317 15.5471 4.45246 16.6663 5.83317 16.6663H14.1665C15.5472 16.6663 16.6665 15.5471 16.6665 14.1663V7.49967Z" fill="#A2A0A2"/>
</svg>
