<svg width="17" height="17" viewBox="0 0 17 17" fill="none" xmlns="http://www.w3.org/2000/svg">
<path d="M8.06747 2.13489L8.20555 14.1341C8.20831 14.3741 8.05016 14.5359 7.81018 14.5387C7.57019 14.5414 7.40836 14.3833 7.4056 14.1433L7.26752 2.1441C7.26476 1.90411 7.42291 1.74228 7.66289 1.73952C7.90288 1.73676 8.06471 1.89491 8.06747 2.13489ZM12.8672 2.07966L13.0052 14.0789C13.008 14.3189 12.8498 14.4807 12.6099 14.4834C12.3699 14.4862 12.208 14.3281 12.2053 14.0881L12.0672 2.08887C12.0644 1.84888 12.2226 1.68705 12.4626 1.68429C12.7026 1.68153 12.8644 1.83968 12.8672 2.07966ZM3.26779 2.19012L3.40586 14.1893C3.40863 14.4293 3.25048 14.5911 3.01049 14.5939C2.77051 14.5967 2.60868 14.4385 2.60592 14.1985L2.46784 2.19933C2.46508 1.95935 2.62323 1.79752 2.86321 1.79475C3.10319 1.79199 3.26502 1.95014 3.26779 2.19012Z" fill="#A2A0A2"/>
</svg>
