<svg width="83" height="20" viewBox="0 0 83 20" fill="none" xmlns="http://www.w3.org/2000/svg">
<g clip-path="url(#clip0_62_1076)">
<path d="M18.9496 7.4981L11.0996 1.8981C10.4496 1.3981 9.54962 1.3981 8.89962 1.8481L1.09962 7.1981C0.749615 7.4481 0.649615 7.8981 0.899615 8.2481C1.14962 8.5981 1.59962 8.6981 1.94962 8.4481L2.99962 7.6981V13.8481C2.99962 16.1481 4.84962 17.9981 7.14962 17.9981H12.8496C15.1496 17.9981 16.9996 16.1481 16.9996 13.8481V7.9481L18.0496 8.6981C18.1996 8.7981 18.3496 8.8481 18.4996 8.8481C18.7496 8.8481 18.9496 8.7481 19.0996 8.5481C19.3496 8.1981 19.2496 7.7481 18.9496 7.4981ZM15.4996 13.8481C15.4996 15.2981 14.2996 16.4981 12.8496 16.4981H7.14962C5.69962 16.4981 4.49962 15.2981 4.49962 13.8481V6.6481L9.79962 3.0481C9.89962 2.9481 10.0496 2.9481 10.1996 3.0481L15.4996 6.8481V13.8481Z" fill="#A2A0A2"/>
</g>
<path d="M36.6543 15.7998H35.5059V11.3291H30.4336V15.7998H29.2852V5.99707H30.4336V10.2969H35.5059V5.99707H36.6543V15.7998ZM42 15.9639C40.9655 15.9639 40.1383 15.638 39.5186 14.9863C38.9033 14.3301 38.5957 13.4619 38.5957 12.3818C38.5957 11.2061 38.917 10.2878 39.5596 9.62695C40.2021 8.96615 41.0703 8.63574 42.1641 8.63574C43.2077 8.63574 44.0212 8.95703 44.6045 9.59961C45.1924 10.2422 45.4863 11.1331 45.4863 12.2725C45.4863 13.389 45.1696 14.2845 44.5361 14.959C43.9072 15.6289 43.0618 15.9639 42 15.9639ZM42.082 9.5791C41.362 9.5791 40.7923 9.8252 40.373 10.3174C39.9538 10.805 39.7441 11.4795 39.7441 12.3408C39.7441 13.1702 39.9561 13.8242 40.3799 14.3027C40.8037 14.7812 41.3711 15.0205 42.082 15.0205C42.8066 15.0205 43.3626 14.7858 43.75 14.3164C44.1419 13.847 44.3379 13.1794 44.3379 12.3135C44.3379 11.4385 44.1419 10.764 43.75 10.29C43.3626 9.81608 42.8066 9.5791 42.082 9.5791ZM57.2168 15.7998H56.0957V11.7803C56.0957 11.0055 55.9749 10.445 55.7334 10.0986C55.4964 9.75228 55.0954 9.5791 54.5303 9.5791C54.0518 9.5791 53.6439 9.79785 53.3066 10.2354C52.974 10.6729 52.8076 11.1969 52.8076 11.8076V15.7998H51.6865V11.6436C51.6865 10.2673 51.1556 9.5791 50.0938 9.5791C49.6016 9.5791 49.196 9.78646 48.877 10.2012C48.5579 10.6113 48.3984 11.1468 48.3984 11.8076V15.7998H47.2773V8.7998H48.3984V9.90723H48.4258C48.9225 9.05957 49.6471 8.63574 50.5996 8.63574C51.0781 8.63574 51.4951 8.77018 51.8506 9.03906C52.2061 9.30339 52.4499 9.65202 52.582 10.085C53.1016 9.11882 53.8763 8.63574 54.9062 8.63574C56.4466 8.63574 57.2168 9.58594 57.2168 11.4863V15.7998ZM64.9619 12.5801H60.0195C60.0378 13.3594 60.2474 13.9609 60.6484 14.3848C61.0495 14.8086 61.6009 15.0205 62.3027 15.0205C63.0911 15.0205 63.8158 14.7607 64.4766 14.2412V15.2939C63.8613 15.7406 63.0479 15.9639 62.0361 15.9639C61.0472 15.9639 60.2702 15.6471 59.7051 15.0137C59.14 14.3757 58.8574 13.4801 58.8574 12.3271C58.8574 11.238 59.165 10.3516 59.7803 9.66797C60.4001 8.97982 61.168 8.63574 62.084 8.63574C63 8.63574 63.7087 8.93197 64.21 9.52441C64.7113 10.1169 64.9619 10.9395 64.9619 11.9922V12.5801ZM63.8135 11.6299C63.8089 10.9827 63.6517 10.4792 63.3418 10.1191C63.0365 9.75911 62.6104 9.5791 62.0635 9.5791C61.5348 9.5791 61.0859 9.76823 60.7168 10.1465C60.3477 10.5247 60.1198 11.0192 60.0332 11.6299H63.8135Z" fill="#F5F4F3"/>
<defs>
<clipPath id="clip0_62_1076">
<rect width="20" height="20" fill="white"/>
</clipPath>
</defs>
</svg>
