<svg width="20" height="20" viewBox="0 0 20 20" fill="none" xmlns="http://www.w3.org/2000/svg">
<g clip-path="url(#clip0_53_2562)">
<path d="M18.9496 7.4981L11.0996 1.8981C10.4496 1.3981 9.54961 1.3981 8.89962 1.8481L1.09962 7.1981C0.749615 7.4481 0.649615 7.8981 0.899615 8.2481C1.14962 8.5981 1.59962 8.6981 1.94962 8.4481L2.99962 7.6981V13.8481C2.99962 16.1481 4.84962 17.9981 7.14962 17.9981H12.8496C15.1496 17.9981 16.9996 16.1481 16.9996 13.8481V7.9481L18.0496 8.6981C18.1996 8.7981 18.3496 8.8481 18.4996 8.8481C18.7496 8.8481 18.9496 8.7481 19.0996 8.5481C19.3496 8.1981 19.2496 7.7481 18.9496 7.4981ZM15.4996 13.8481C15.4996 15.2981 14.2996 16.4981 12.8496 16.4981H7.14962C5.69962 16.4981 4.49962 15.2981 4.49962 13.8481V6.6481L9.79962 3.0481C9.89962 2.9481 10.0496 2.9481 10.1996 3.0481L15.4996 6.8481V13.8481Z" fill="#A2A0A2"/>
</g>
<defs>
<clipPath id="clip0_53_2562">
<rect width="20" height="20" fill="white"/>
</clipPath>
</defs>
</svg>
