<svg width="83" height="20" viewBox="0 0 83 20" fill="none" xmlns="http://www.w3.org/2000/svg">
<path fill-rule="evenodd" clip-rule="evenodd" d="M6.24984 0.833008C6.71007 0.833008 7.08317 1.2061 7.08317 1.66634V2.49967H12.9165V1.66634C12.9165 1.2061 13.2896 0.833008 13.7498 0.833008C14.2101 0.833008 14.5832 1.2061 14.5832 1.66634V2.52025C16.6887 2.7293 18.3332 4.50578 18.3332 6.66634V14.1663C18.3332 16.4675 16.4677 18.333 14.1665 18.333H5.83317C3.53198 18.333 1.6665 16.4675 1.6665 14.1663V6.66634C1.6665 4.50578 3.31095 2.7293 5.4165 2.52025V1.66634C5.4165 1.2061 5.7896 0.833008 6.24984 0.833008ZM3.47543 5.83301H16.5243C16.1811 4.86201 15.255 4.16634 14.1665 4.16634H5.83317C4.74466 4.16634 3.81862 4.86201 3.47543 5.83301ZM16.6665 7.49967H3.33317V14.1663C3.33317 15.5471 4.45246 16.6663 5.83317 16.6663H14.1665C15.5472 16.6663 16.6665 15.5471 16.6665 14.1663V7.49967Z" fill="#A2A0A2"/>
<path d="M35.957 15.5898C35.2324 15.9727 34.3301 16.1641 33.25 16.1641C31.8555 16.1641 30.7389 15.7152 29.9004 14.8174C29.0618 13.9196 28.6426 12.7415 28.6426 11.2832C28.6426 9.71549 29.1143 8.44857 30.0576 7.48242C31.001 6.51628 32.1973 6.0332 33.6465 6.0332C34.5762 6.0332 35.3464 6.16764 35.957 6.43652V7.66016C35.2552 7.26823 34.4805 7.07227 33.6328 7.07227C32.5072 7.07227 31.5934 7.44824 30.8916 8.2002C30.1943 8.95215 29.8457 9.95703 29.8457 11.2148C29.8457 12.4089 30.1715 13.3613 30.8232 14.0723C31.4795 14.7786 32.3385 15.1318 33.4004 15.1318C34.3848 15.1318 35.237 14.9131 35.957 14.4756V15.5898ZM42.8135 16H41.6924V14.9062H41.665C41.1774 15.7448 40.4596 16.1641 39.5117 16.1641C38.8145 16.1641 38.2676 15.9795 37.8711 15.6104C37.4792 15.2412 37.2832 14.7513 37.2832 14.1406C37.2832 12.8327 38.0534 12.0716 39.5938 11.8574L41.6924 11.5635C41.6924 10.374 41.2116 9.7793 40.25 9.7793C39.4069 9.7793 38.6458 10.0664 37.9668 10.6406V9.49219C38.6549 9.05469 39.4479 8.83594 40.3457 8.83594C41.9909 8.83594 42.8135 9.70638 42.8135 11.4473V16ZM41.6924 12.459L40.0039 12.6914C39.4844 12.7643 39.0924 12.8942 38.8281 13.0811C38.5638 13.2633 38.4316 13.5892 38.4316 14.0586C38.4316 14.4004 38.5524 14.6807 38.7939 14.8994C39.04 15.1136 39.3659 15.2207 39.7715 15.2207C40.3275 15.2207 40.7855 15.027 41.1455 14.6396C41.5101 14.2477 41.6924 13.7533 41.6924 13.1562V12.459ZM46.0469 16H44.9258V5.63672H46.0469V16ZM53.9424 12.7803H49C49.0182 13.5596 49.2279 14.1611 49.6289 14.585C50.0299 15.0088 50.5814 15.2207 51.2832 15.2207C52.0716 15.2207 52.7962 14.9609 53.457 14.4414V15.4941C52.8418 15.9408 52.0283 16.1641 51.0166 16.1641C50.0277 16.1641 49.2507 15.8473 48.6855 15.2139C48.1204 14.5758 47.8379 13.6803 47.8379 12.5273C47.8379 11.4382 48.1455 10.5518 48.7607 9.86816C49.3805 9.18001 50.1484 8.83594 51.0645 8.83594C51.9805 8.83594 52.6891 9.13216 53.1904 9.72461C53.6917 10.3171 53.9424 11.1396 53.9424 12.1924V12.7803ZM52.7939 11.8301C52.7894 11.1829 52.6322 10.6794 52.3223 10.3193C52.0169 9.95931 51.5908 9.7793 51.0439 9.7793C50.5153 9.7793 50.0664 9.96842 49.6973 10.3467C49.3281 10.7249 49.1003 11.2194 49.0137 11.8301H52.7939ZM61.4551 16H60.334V12.0078C60.334 10.5221 59.7917 9.7793 58.707 9.7793C58.1465 9.7793 57.6816 9.99121 57.3125 10.415C56.9479 10.8343 56.7656 11.3652 56.7656 12.0078V16H55.6445V9H56.7656V10.1621H56.793C57.3216 9.27799 58.0872 8.83594 59.0898 8.83594C59.8555 8.83594 60.4411 9.08431 60.8467 9.58105C61.2523 10.0732 61.4551 10.7865 61.4551 11.7207V16ZM69.5488 16H68.4277V14.8105H68.4004C67.8809 15.7129 67.0788 16.1641 65.9941 16.1641C65.1146 16.1641 64.4105 15.8519 63.8818 15.2275C63.3577 14.5986 63.0957 13.7441 63.0957 12.6641C63.0957 11.5065 63.3874 10.5791 63.9707 9.88184C64.554 9.18457 65.3311 8.83594 66.3018 8.83594C67.2633 8.83594 67.9629 9.21419 68.4004 9.9707H68.4277V5.63672H69.5488V16ZM68.4277 12.835V11.8027C68.4277 11.2376 68.2409 10.7591 67.8672 10.3672C67.4935 9.97526 67.0195 9.7793 66.4453 9.7793C65.7617 9.7793 65.224 10.0299 64.832 10.5312C64.4401 11.0326 64.2441 11.7253 64.2441 12.6094C64.2441 13.416 64.431 14.054 64.8047 14.5234C65.1829 14.9883 65.6888 15.2207 66.3223 15.2207C66.9466 15.2207 67.4525 14.9951 67.8398 14.5439C68.2318 14.0928 68.4277 13.5231 68.4277 12.835ZM76.8291 16H75.708V14.9062H75.6807C75.193 15.7448 74.4753 16.1641 73.5273 16.1641C72.8301 16.1641 72.2832 15.9795 71.8867 15.6104C71.4948 15.2412 71.2988 14.7513 71.2988 14.1406C71.2988 12.8327 72.069 12.0716 73.6094 11.8574L75.708 11.5635C75.708 10.374 75.2272 9.7793 74.2656 9.7793C73.4225 9.7793 72.6615 10.0664 71.9824 10.6406V9.49219C72.6706 9.05469 73.4635 8.83594 74.3613 8.83594C76.0065 8.83594 76.8291 9.70638 76.8291 11.4473V16ZM75.708 12.459L74.0195 12.6914C73.5 12.7643 73.1081 12.8942 72.8438 13.0811C72.5794 13.2633 72.4473 13.5892 72.4473 14.0586C72.4473 14.4004 72.568 14.6807 72.8096 14.8994C73.0557 15.1136 73.3815 15.2207 73.7871 15.2207C74.3431 15.2207 74.8011 15.027 75.1611 14.6396C75.5257 14.2477 75.708 13.7533 75.708 13.1562V12.459ZM82.5918 10.1348C82.3958 9.98438 82.1133 9.90918 81.7441 9.90918C81.2656 9.90918 80.8646 10.1348 80.541 10.5859C80.222 11.0371 80.0625 11.6523 80.0625 12.4316V16H78.9414V9H80.0625V10.4424H80.0898C80.2493 9.9502 80.4932 9.56738 80.8213 9.29395C81.1494 9.01595 81.5163 8.87695 81.9219 8.87695C82.2135 8.87695 82.4368 8.90885 82.5918 8.97266V10.1348Z" fill="#F5F4F3"/>
</svg>
