<svg width="16" height="16" viewBox="0 0 16 16" fill="none" xmlns="http://www.w3.org/2000/svg">
<path d="M2.00022 7.99727H14.0002C14.2402 7.99727 14.4002 8.15727 14.4002 8.39727C14.4002 8.63727 14.2402 8.79727 14.0002 8.79727H2.00022C1.76022 8.79727 1.60022 8.63727 1.60022 8.39727C1.60022 8.15727 1.76022 7.99727 2.00022 7.99727ZM2.00022 3.19727H14.0002C14.2402 3.19727 14.4002 3.35727 14.4002 3.59727C14.4002 3.83727 14.2402 3.99727 14.0002 3.99727H2.00022C1.76022 3.99727 1.60022 3.83727 1.60022 3.59727C1.60022 3.35727 1.76022 3.19727 2.00022 3.19727ZM2.00022 12.7973H14.0002C14.2402 12.7973 14.4002 12.9573 14.4002 13.1973C14.4002 13.4373 14.2402 13.5973 14.0002 13.5973H2.00022C1.76022 13.5973 1.60022 13.4373 1.60022 13.1973C1.60022 12.9573 1.76022 12.7973 2.00022 12.7973Z" fill="#A2A0A2"/>
</svg>
